<?xml version="1.0" standalone="no"?>
<svg xmlns:xlink="http://www.w3.org/1999/xlink" id="wave" style="transform:rotate(0deg); transition: 0.3s" viewBox="0 0 1440 490" version="1.1" xmlns="http://www.w3.org/2000/svg"><defs><linearGradient id="sw-gradient-0" x1="0" x2="0" y1="1" y2="0"><stop stop-color="rgba(243, 62, 163.549, 1)" offset="0%"/><stop stop-color="rgba(255, 11, 56.976, 1)" offset="100%"/></linearGradient></defs><path style="transform:translate(0, 0px); opacity:1" fill="url(#sw-gradient-0)" d="M0,441L24,432.8C48,425,96,408,144,343C192,278,240,163,288,163.3C336,163,384,278,432,318.5C480,359,528,327,576,294C624,261,672,229,720,253.2C768,278,816,359,864,326.7C912,294,960,147,1008,81.7C1056,16,1104,33,1152,57.2C1200,82,1248,114,1296,106.2C1344,98,1392,49,1440,65.3C1488,82,1536,163,1584,220.5C1632,278,1680,310,1728,334.8C1776,359,1824,376,1872,318.5C1920,261,1968,131,2016,73.5C2064,16,2112,33,2160,73.5C2208,114,2256,180,2304,179.7C2352,180,2400,114,2448,106.2C2496,98,2544,147,2592,155.2C2640,163,2688,131,2736,130.7C2784,131,2832,163,2880,220.5C2928,278,2976,359,3024,392C3072,425,3120,408,3168,375.7C3216,343,3264,294,3312,285.8C3360,278,3408,310,3432,326.7L3456,343L3456,490L3432,490C3408,490,3360,490,3312,490C3264,490,3216,490,3168,490C3120,490,3072,490,3024,490C2976,490,2928,490,2880,490C2832,490,2784,490,2736,490C2688,490,2640,490,2592,490C2544,490,2496,490,2448,490C2400,490,2352,490,2304,490C2256,490,2208,490,2160,490C2112,490,2064,490,2016,490C1968,490,1920,490,1872,490C1824,490,1776,490,1728,490C1680,490,1632,490,1584,490C1536,490,1488,490,1440,490C1392,490,1344,490,1296,490C1248,490,1200,490,1152,490C1104,490,1056,490,1008,490C960,490,912,490,864,490C816,490,768,490,720,490C672,490,624,490,576,490C528,490,480,490,432,490C384,490,336,490,288,490C240,490,192,490,144,490C96,490,48,490,24,490L0,490Z"/></svg>